<svg id="youtube" xmlns="http://www.w3.org/2000/svg" width="38.987" height="27.437" viewBox="0 0 38.987 27.437">
  <path id="XMLID_823_" d="M37.467,48.272C36.06,46.6,33.461,45.917,28.5,45.917H10.487c-5.076,0-7.718.726-9.12,2.507C0,50.161,0,52.72,0,56.261v6.75c0,6.86,1.622,10.344,10.487,10.344H28.5c4.3,0,6.688-.6,8.23-2.078,1.582-1.514,2.257-3.986,2.257-8.265v-6.75C38.987,52.526,38.881,49.953,37.467,48.272Zm-12.437,12.3L16.85,64.842a1.258,1.258,0,0,1-1.84-1.115V55.205a1.258,1.258,0,0,1,1.837-1.116l8.179,4.247a1.258,1.258,0,0,1,0,2.231Z" transform="translate(0 -45.917)"/>
</svg>
