<svg id="envelope" xmlns="http://www.w3.org/2000/svg" width="33.625" height="25.59" viewBox="0 0 33.625 25.59">
  <g id="Group_22" data-name="Group 22" transform="translate(0 0)">
    <path id="Path_219" data-name="Path 219" d="M29.52,57.75H4.112A4.115,4.115,0,0,0,0,61.862V79.228A4.115,4.115,0,0,0,4.112,83.34h25.4a4.115,4.115,0,0,0,4.112-4.112V61.869A4.111,4.111,0,0,0,29.52,57.75Zm2.233,21.478a2.236,2.236,0,0,1-2.233,2.233H4.112a2.236,2.236,0,0,1-2.233-2.233V61.869a2.236,2.236,0,0,1,2.233-2.233h25.4a2.236,2.236,0,0,1,2.233,2.233V79.228Z" transform="translate(0 -57.75)" fill="#fff"/>
    <path id="Path_220" data-name="Path 220" d="M73.08,117.923l8.224-7.375a.941.941,0,1,0-1.259-1.4L68.7,119.328l-2.212-1.976c-.007-.007-.014-.014-.014-.021a1.392,1.392,0,0,0-.153-.132l-9-8.057a.941.941,0,1,0-1.252,1.405l8.321,7.438L56.1,125.743a.943.943,0,0,0-.042,1.329.961.961,0,0,0,.689.3.941.941,0,0,0,.64-.25l8.412-7.869,2.282,2.039a.937.937,0,0,0,1.252-.007l2.345-2.1,8.363,7.945a.942.942,0,0,0,1.329-.035.943.943,0,0,0-.035-1.329Z" transform="translate(-51.873 -105.343)" fill="#fff"/>
  </g>
</svg>
