<svg id="linkedin-letters" xmlns="http://www.w3.org/2000/svg" width="33.513" height="32.03" viewBox="0 0 33.513 32.03">
  <g id="Group_15" data-name="Group 15" transform="translate(0 0)">
    <rect id="Rectangle_1103" data-name="Rectangle 1103" width="7.2" height="21.622" transform="translate(0.415 10.408)" fill="#fff"/>
    <path id="Path_213" data-name="Path 213" d="M171.256,141.808a7.749,7.749,0,0,0-6-2.477,8.647,8.647,0,0,0-2.5.338,5.669,5.669,0,0,0-1.9.949,8.128,8.128,0,0,0-2.084,2.289v-3.075H151.6l.022,1.047q.022,1.048.022,6.458t-.044,14.117h7.178V149.389a5.27,5.27,0,0,1,.24-1.767,4.635,4.635,0,0,1,1.386-1.865,3.533,3.533,0,0,1,2.3-.753,3.1,3.1,0,0,1,2.76,1.3,6.313,6.313,0,0,1,.883,3.589v11.564h7.178V149.062Q173.524,144.283,171.256,141.808Z" transform="translate(-140.012 -129.425)" fill="#fff"/>
    <path id="Path_214" data-name="Path 214" d="M4.058,9.708a4.108,4.108,0,0,0-2.935,1.058A3.513,3.513,0,0,0,0,13.439,3.575,3.575,0,0,0,1.091,16.1a3.938,3.938,0,0,0,2.88,1.069h.044A4.111,4.111,0,0,0,6.971,16.1a3.454,3.454,0,0,0,1.1-2.662A3.639,3.639,0,0,0,6.96,10.766,3.99,3.99,0,0,0,4.058,9.708Z" transform="translate(0 -9.708)" fill="#fff"/>
  </g>
</svg>
