<svg id="instagram-logo" xmlns="http://www.w3.org/2000/svg" width="34.938" height="34.938" viewBox="0 0 34.938 34.938">
  <path id="Path_303" data-name="Path 303" d="M25.3,0H9.641A9.653,9.653,0,0,0,0,9.642V25.3a9.652,9.652,0,0,0,9.641,9.642H25.3A9.653,9.653,0,0,0,34.938,25.3V9.642A9.652,9.652,0,0,0,25.3,0Zm6.542,25.3A6.549,6.549,0,0,1,25.3,31.838H9.641A6.549,6.549,0,0,1,3.1,25.3V9.642A6.549,6.549,0,0,1,9.641,3.1H25.3a6.549,6.549,0,0,1,6.542,6.542V25.3Z"/>
  <path id="Path_304" data-name="Path 304" d="M49.971,40.97a9,9,0,1,0,9,9A9.013,9.013,0,0,0,49.971,40.97Zm0,14.9a5.9,5.9,0,1,1,5.9-5.9A5.909,5.909,0,0,1,49.971,55.875Z" transform="translate(-32.502 -32.503)"/>
  <path id="Path_305" data-name="Path 305" d="M121.194,28.251a2.272,2.272,0,1,0,1.608.665A2.282,2.282,0,0,0,121.194,28.251Z" transform="translate(-94.345 -22.413)"/>
</svg>
