<svg id="facebook-logo" xmlns="http://www.w3.org/2000/svg" width="16.746" height="30.975" viewBox="0 0 16.746 30.975">
  <path id="Path_218" data-name="Path 218" d="M38.193.006,34.176,0c-4.513,0-7.429,2.992-7.429,7.623v3.515H22.709a.632.632,0,0,0-.632.632v5.092a.632.632,0,0,0,.632.632h4.039v12.85a.631.631,0,0,0,.632.632h5.269a.632.632,0,0,0,.632-.632V17.494H38a.631.631,0,0,0,.632-.632l0-5.092A.632.632,0,0,0,38,11.138H33.28V8.158C33.28,6.726,33.621,6,35.486,6h2.706a.632.632,0,0,0,.631-.632V.638A.632.632,0,0,0,38.193.006Z" transform="translate(-22.077)" fill="#fff"/>
</svg>
