<svg id="whatsapp-logo" xmlns="http://www.w3.org/2000/svg" width="30.863" height="30.863" viewBox="0 0 30.863 30.863">
  <path id="WhatsApp" d="M30.863,15.034A15.176,15.176,0,0,1,8.388,28.2L0,30.863,2.735,22.8A14.876,14.876,0,0,1,.561,15.034a15.152,15.152,0,0,1,30.3,0ZM15.712,2.394A12.7,12.7,0,0,0,2.974,15.034,12.507,12.507,0,0,0,5.4,22.445L3.809,27.139l4.9-1.556A12.751,12.751,0,0,0,28.45,15.035,12.7,12.7,0,0,0,15.712,2.394Zm7.651,16.1c-.094-.153-.341-.246-.712-.43s-2.2-1.076-2.538-1.2-.589-.184-.836.184-.959,1.2-1.176,1.444-.433.277-.8.093a10.165,10.165,0,0,1-2.986-1.829,11.11,11.11,0,0,1-2.066-2.552c-.216-.369-.023-.568.163-.751.167-.165.372-.43.557-.645a2.47,2.47,0,0,0,.371-.615.671.671,0,0,0-.031-.646c-.093-.184-.836-2-1.145-2.736s-.618-.615-.835-.615-.464-.031-.712-.031a1.371,1.371,0,0,0-.991.461,4.121,4.121,0,0,0-1.3,3.074,7.13,7.13,0,0,0,1.516,3.811c.186.246,2.568,4.088,6.344,5.563s3.776.983,4.457.921a3.756,3.756,0,0,0,2.507-1.751A3.072,3.072,0,0,0,23.363,18.5Z" fill="#fff"/>
</svg>
